<mxfile host="app.diagrams.net" modified="2024-02-22T21:55:21.434Z" agent="Mozilla/5.0 (Windows NT 10.0; Win64; x64) AppleWebKit/537.36 (KHTML, like Gecko) Chrome/121.0.0.0 Safari/537.36" etag="cNTAoEi9Xnt7UvPC6rTk" version="23.1.5" type="device">
  <diagram name="Page-1" id="eB22ArLjq647rImJ-dLk">
    <mxGraphModel dx="2265" dy="616" grid="1" gridSize="10" guides="1" tooltips="1" connect="1" arrows="1" fold="1" page="1" pageScale="1" pageWidth="827" pageHeight="1169" math="0" shadow="0">
      <root>
        <mxCell id="0" />
        <mxCell id="1" parent="0" />
        <mxCell id="ly84IFFzyNYK9IbjNwR7-1" value="Admin" style="swimlane;fontStyle=1;align=center;verticalAlign=top;childLayout=stackLayout;horizontal=1;startSize=26;horizontalStack=0;resizeParent=1;resizeParentMax=0;resizeLast=0;collapsible=1;marginBottom=0;whiteSpace=wrap;html=1;" parent="1" vertex="1">
          <mxGeometry x="-50" y="170" width="270" height="330" as="geometry" />
        </mxCell>
        <mxCell id="ly84IFFzyNYK9IbjNwR7-2" value="- username : string&lt;br&gt;- password : int&lt;br&gt;- name: string" style="text;strokeColor=none;fillColor=none;align=left;verticalAlign=top;spacingLeft=4;spacingRight=4;overflow=hidden;rotatable=0;points=[[0,0.5],[1,0.5]];portConstraint=eastwest;whiteSpace=wrap;html=1;" parent="ly84IFFzyNYK9IbjNwR7-1" vertex="1">
          <mxGeometry y="26" width="270" height="54" as="geometry" />
        </mxCell>
        <mxCell id="ly84IFFzyNYK9IbjNwR7-3" value="" style="line;strokeWidth=1;fillColor=none;align=left;verticalAlign=middle;spacingTop=-1;spacingLeft=3;spacingRight=3;rotatable=0;labelPosition=right;points=[];portConstraint=eastwest;strokeColor=inherit;" parent="ly84IFFzyNYK9IbjNwR7-1" vertex="1">
          <mxGeometry y="80" width="270" height="8" as="geometry" />
        </mxCell>
        <mxCell id="ly84IFFzyNYK9IbjNwR7-4" value="+ connection(username,password): function&lt;br&gt;- createUser(user): object&lt;br&gt;- filter(animal,date): function&lt;br&gt;- animalCounter(): function&lt;br&gt;- createAnimal():function&lt;br&gt;- updateAnimal():function&lt;br&gt;- deleteAnimal():function&lt;br&gt;- createHabitat():function&lt;br style=&quot;border-color: var(--border-color);&quot;&gt;- updateHabitat():function&lt;br style=&quot;border-color: var(--border-color);&quot;&gt;- deleteHabitat():function&lt;br&gt;- createSchedule():function&lt;br style=&quot;border-color: var(--border-color);&quot;&gt;- updateSchedule():function&lt;br style=&quot;border-color: var(--border-color);&quot;&gt;- deleteSchedule():function&lt;br&gt;- createService():function&lt;br style=&quot;border-color: var(--border-color);&quot;&gt;- updateService():function&lt;br style=&quot;border-color: var(--border-color);&quot;&gt;- deleteService():function&lt;br style=&quot;border-color: var(--border-color);&quot;&gt;&lt;br&gt;&lt;div&gt;&lt;br&gt;&lt;/div&gt;" style="text;strokeColor=none;fillColor=none;align=left;verticalAlign=top;spacingLeft=4;spacingRight=4;overflow=hidden;rotatable=0;points=[[0,0.5],[1,0.5]];portConstraint=eastwest;whiteSpace=wrap;html=1;" parent="ly84IFFzyNYK9IbjNwR7-1" vertex="1">
          <mxGeometry y="88" width="270" height="242" as="geometry" />
        </mxCell>
        <mxCell id="ly84IFFzyNYK9IbjNwR7-5" value="Visitor" style="swimlane;fontStyle=1;align=center;verticalAlign=top;childLayout=stackLayout;horizontal=1;startSize=26;horizontalStack=0;resizeParent=1;resizeParentMax=0;resizeLast=0;collapsible=1;marginBottom=0;whiteSpace=wrap;html=1;" parent="1" vertex="1">
          <mxGeometry x="960" y="478" width="160" height="150" as="geometry" />
        </mxCell>
        <mxCell id="ly84IFFzyNYK9IbjNwR7-6" value="- mail : string&lt;div&gt;- titreAvis : string&lt;/div&gt;&lt;div&gt;- descriptionAvis : string&lt;/div&gt;" style="text;strokeColor=none;fillColor=none;align=left;verticalAlign=top;spacingLeft=4;spacingRight=4;overflow=hidden;rotatable=0;points=[[0,0.5],[1,0.5]];portConstraint=eastwest;whiteSpace=wrap;html=1;" parent="ly84IFFzyNYK9IbjNwR7-5" vertex="1">
          <mxGeometry y="26" width="160" height="64" as="geometry" />
        </mxCell>
        <mxCell id="ly84IFFzyNYK9IbjNwR7-7" value="" style="line;strokeWidth=1;fillColor=none;align=left;verticalAlign=middle;spacingTop=-1;spacingLeft=3;spacingRight=3;rotatable=0;labelPosition=right;points=[];portConstraint=eastwest;strokeColor=inherit;" parent="ly84IFFzyNYK9IbjNwR7-5" vertex="1">
          <mxGeometry y="90" width="160" height="8" as="geometry" />
        </mxCell>
        <mxCell id="ly84IFFzyNYK9IbjNwR7-8" value="- sendComment():function&lt;br&gt;- sendMail():function" style="text;strokeColor=none;fillColor=none;align=left;verticalAlign=top;spacingLeft=4;spacingRight=4;overflow=hidden;rotatable=0;points=[[0,0.5],[1,0.5]];portConstraint=eastwest;whiteSpace=wrap;html=1;" parent="ly84IFFzyNYK9IbjNwR7-5" vertex="1">
          <mxGeometry y="98" width="160" height="52" as="geometry" />
        </mxCell>
        <mxCell id="ly84IFFzyNYK9IbjNwR7-9" value="Veterinarian&lt;div&gt;&lt;br&gt;&lt;/div&gt;" style="swimlane;fontStyle=1;align=center;verticalAlign=top;childLayout=stackLayout;horizontal=1;startSize=26;horizontalStack=0;resizeParent=1;resizeParentMax=0;resizeLast=0;collapsible=1;marginBottom=0;whiteSpace=wrap;html=1;" parent="1" vertex="1">
          <mxGeometry x="-40" y="585" width="270" height="140" as="geometry" />
        </mxCell>
        <mxCell id="ly84IFFzyNYK9IbjNwR7-10" value="- id : int&lt;br&gt;- username : string&lt;br&gt;- password : int" style="text;strokeColor=none;fillColor=none;align=left;verticalAlign=top;spacingLeft=4;spacingRight=4;overflow=hidden;rotatable=0;points=[[0,0.5],[1,0.5]];portConstraint=eastwest;whiteSpace=wrap;html=1;" parent="ly84IFFzyNYK9IbjNwR7-9" vertex="1">
          <mxGeometry y="26" width="270" height="54" as="geometry" />
        </mxCell>
        <mxCell id="ly84IFFzyNYK9IbjNwR7-11" value="" style="line;strokeWidth=1;fillColor=none;align=left;verticalAlign=middle;spacingTop=-1;spacingLeft=3;spacingRight=3;rotatable=0;labelPosition=right;points=[];portConstraint=eastwest;strokeColor=inherit;" parent="ly84IFFzyNYK9IbjNwR7-9" vertex="1">
          <mxGeometry y="80" width="270" height="8" as="geometry" />
        </mxCell>
        <mxCell id="ly84IFFzyNYK9IbjNwR7-12" value="+ connection(username,password): function&lt;div&gt;- report():function&lt;/div&gt;&lt;div&gt;- checkAnimal():function&lt;/div&gt;" style="text;strokeColor=none;fillColor=none;align=left;verticalAlign=top;spacingLeft=4;spacingRight=4;overflow=hidden;rotatable=0;points=[[0,0.5],[1,0.5]];portConstraint=eastwest;whiteSpace=wrap;html=1;" parent="ly84IFFzyNYK9IbjNwR7-9" vertex="1">
          <mxGeometry y="88" width="270" height="52" as="geometry" />
        </mxCell>
        <mxCell id="ly84IFFzyNYK9IbjNwR7-13" value="Animal" style="swimlane;fontStyle=1;align=center;verticalAlign=top;childLayout=stackLayout;horizontal=1;startSize=26;horizontalStack=0;resizeParent=1;resizeParentMax=0;resizeLast=0;collapsible=1;marginBottom=0;whiteSpace=wrap;html=1;" parent="1" vertex="1">
          <mxGeometry x="-600" y="255" width="160" height="118" as="geometry" />
        </mxCell>
        <mxCell id="ly84IFFzyNYK9IbjNwR7-14" value="- id : int&lt;div&gt;- name : string&lt;/div&gt;&lt;div&gt;- race : string&lt;/div&gt;&lt;div&gt;- image : image&lt;/div&gt;&lt;div&gt;- idHabitat : int&lt;/div&gt;" style="text;strokeColor=none;fillColor=none;align=left;verticalAlign=top;spacingLeft=4;spacingRight=4;overflow=hidden;rotatable=0;points=[[0,0.5],[1,0.5]];portConstraint=eastwest;whiteSpace=wrap;html=1;" parent="ly84IFFzyNYK9IbjNwR7-13" vertex="1">
          <mxGeometry y="26" width="160" height="84" as="geometry" />
        </mxCell>
        <mxCell id="ly84IFFzyNYK9IbjNwR7-15" value="" style="line;strokeWidth=1;fillColor=none;align=left;verticalAlign=middle;spacingTop=-1;spacingLeft=3;spacingRight=3;rotatable=0;labelPosition=right;points=[];portConstraint=eastwest;strokeColor=inherit;" parent="ly84IFFzyNYK9IbjNwR7-13" vertex="1">
          <mxGeometry y="110" width="160" height="8" as="geometry" />
        </mxCell>
        <mxCell id="ly84IFFzyNYK9IbjNwR7-17" value="Habitat" style="swimlane;fontStyle=1;align=center;verticalAlign=top;childLayout=stackLayout;horizontal=1;startSize=26;horizontalStack=0;resizeParent=1;resizeParentMax=0;resizeLast=0;collapsible=1;marginBottom=0;whiteSpace=wrap;html=1;" parent="1" vertex="1">
          <mxGeometry x="-300" y="250" width="160" height="128" as="geometry" />
        </mxCell>
        <mxCell id="ly84IFFzyNYK9IbjNwR7-18" value="- id : int&lt;div&gt;- name : string&lt;/div&gt;&lt;div&gt;- image : image&lt;/div&gt;&lt;div&gt;- description : string&lt;/div&gt;&lt;div&gt;- animalList : array[]&lt;/div&gt;" style="text;strokeColor=none;fillColor=none;align=left;verticalAlign=top;spacingLeft=4;spacingRight=4;overflow=hidden;rotatable=0;points=[[0,0.5],[1,0.5]];portConstraint=eastwest;whiteSpace=wrap;html=1;" parent="ly84IFFzyNYK9IbjNwR7-17" vertex="1">
          <mxGeometry y="26" width="160" height="94" as="geometry" />
        </mxCell>
        <mxCell id="ly84IFFzyNYK9IbjNwR7-19" value="" style="line;strokeWidth=1;fillColor=none;align=left;verticalAlign=middle;spacingTop=-1;spacingLeft=3;spacingRight=3;rotatable=0;labelPosition=right;points=[];portConstraint=eastwest;strokeColor=inherit;" parent="ly84IFFzyNYK9IbjNwR7-17" vertex="1">
          <mxGeometry y="120" width="160" height="8" as="geometry" />
        </mxCell>
        <mxCell id="ly84IFFzyNYK9IbjNwR7-21" value="Employee" style="swimlane;fontStyle=1;align=center;verticalAlign=top;childLayout=stackLayout;horizontal=1;startSize=26;horizontalStack=0;resizeParent=1;resizeParentMax=0;resizeLast=0;collapsible=1;marginBottom=0;whiteSpace=wrap;html=1;" parent="1" vertex="1">
          <mxGeometry x="880" y="40" width="270" height="200" as="geometry" />
        </mxCell>
        <mxCell id="ly84IFFzyNYK9IbjNwR7-22" value="- id : int&lt;br&gt;- username : string&lt;br&gt;- password : int&lt;div&gt;&lt;br/&gt;&lt;/div&gt;" style="text;strokeColor=none;fillColor=none;align=left;verticalAlign=top;spacingLeft=4;spacingRight=4;overflow=hidden;rotatable=0;points=[[0,0.5],[1,0.5]];portConstraint=eastwest;whiteSpace=wrap;html=1;" parent="ly84IFFzyNYK9IbjNwR7-21" vertex="1">
          <mxGeometry y="26" width="270" height="54" as="geometry" />
        </mxCell>
        <mxCell id="ly84IFFzyNYK9IbjNwR7-23" value="" style="line;strokeWidth=1;fillColor=none;align=left;verticalAlign=middle;spacingTop=-1;spacingLeft=3;spacingRight=3;rotatable=0;labelPosition=right;points=[];portConstraint=eastwest;strokeColor=inherit;" parent="ly84IFFzyNYK9IbjNwR7-21" vertex="1">
          <mxGeometry y="80" width="270" height="8" as="geometry" />
        </mxCell>
        <mxCell id="ly84IFFzyNYK9IbjNwR7-24" value="+ connection(username,password): function&lt;div&gt;- updateAnimalFood():function&lt;/div&gt;&lt;div&gt;- postComment():function&lt;/div&gt;&lt;div&gt;- replyMail():function&lt;/div&gt;&lt;div&gt;- createService():function&lt;br style=&quot;border-color: var(--border-color);&quot;&gt;- updateService():function&lt;br style=&quot;border-color: var(--border-color);&quot;&gt;- deleteService():function&lt;br&gt;&lt;/div&gt;" style="text;strokeColor=none;fillColor=none;align=left;verticalAlign=top;spacingLeft=4;spacingRight=4;overflow=hidden;rotatable=0;points=[[0,0.5],[1,0.5]];portConstraint=eastwest;whiteSpace=wrap;html=1;" parent="ly84IFFzyNYK9IbjNwR7-21" vertex="1">
          <mxGeometry y="88" width="270" height="112" as="geometry" />
        </mxCell>
        <mxCell id="IFlOmPg6EIL6a05Mhjfu-1" value="Comment" style="swimlane;fontStyle=1;align=center;verticalAlign=top;childLayout=stackLayout;horizontal=1;startSize=26;horizontalStack=0;resizeParent=1;resizeParentMax=0;resizeLast=0;collapsible=1;marginBottom=0;whiteSpace=wrap;html=1;" vertex="1" parent="1">
          <mxGeometry x="667" y="509" width="160" height="88" as="geometry" />
        </mxCell>
        <mxCell id="IFlOmPg6EIL6a05Mhjfu-2" value="- id : int&lt;div&gt;- clientName : string&lt;/div&gt;&lt;div&gt;- text : string&lt;/div&gt;" style="text;strokeColor=none;fillColor=none;align=left;verticalAlign=top;spacingLeft=4;spacingRight=4;overflow=hidden;rotatable=0;points=[[0,0.5],[1,0.5]];portConstraint=eastwest;whiteSpace=wrap;html=1;" vertex="1" parent="IFlOmPg6EIL6a05Mhjfu-1">
          <mxGeometry y="26" width="160" height="54" as="geometry" />
        </mxCell>
        <mxCell id="IFlOmPg6EIL6a05Mhjfu-3" value="" style="line;strokeWidth=1;fillColor=none;align=left;verticalAlign=middle;spacingTop=-1;spacingLeft=3;spacingRight=3;rotatable=0;labelPosition=right;points=[];portConstraint=eastwest;strokeColor=inherit;" vertex="1" parent="IFlOmPg6EIL6a05Mhjfu-1">
          <mxGeometry y="80" width="160" height="8" as="geometry" />
        </mxCell>
        <mxCell id="IFlOmPg6EIL6a05Mhjfu-4" value="Mail" style="swimlane;fontStyle=1;align=center;verticalAlign=top;childLayout=stackLayout;horizontal=1;startSize=26;horizontalStack=0;resizeParent=1;resizeParentMax=0;resizeLast=0;collapsible=1;marginBottom=0;whiteSpace=wrap;html=1;" vertex="1" parent="1">
          <mxGeometry x="950" y="320" width="160" height="108" as="geometry" />
        </mxCell>
        <mxCell id="IFlOmPg6EIL6a05Mhjfu-5" value="- id : int&lt;div&gt;- title : string&lt;/div&gt;&lt;div&gt;- description: string&lt;/div&gt;&lt;div&gt;- email : varchar&lt;/div&gt;" style="text;strokeColor=none;fillColor=none;align=left;verticalAlign=top;spacingLeft=4;spacingRight=4;overflow=hidden;rotatable=0;points=[[0,0.5],[1,0.5]];portConstraint=eastwest;whiteSpace=wrap;html=1;" vertex="1" parent="IFlOmPg6EIL6a05Mhjfu-4">
          <mxGeometry y="26" width="160" height="74" as="geometry" />
        </mxCell>
        <mxCell id="IFlOmPg6EIL6a05Mhjfu-6" value="" style="line;strokeWidth=1;fillColor=none;align=left;verticalAlign=middle;spacingTop=-1;spacingLeft=3;spacingRight=3;rotatable=0;labelPosition=right;points=[];portConstraint=eastwest;strokeColor=inherit;" vertex="1" parent="IFlOmPg6EIL6a05Mhjfu-4">
          <mxGeometry y="100" width="160" height="8" as="geometry" />
        </mxCell>
        <mxCell id="IFlOmPg6EIL6a05Mhjfu-7" value="Service" style="swimlane;fontStyle=1;align=center;verticalAlign=top;childLayout=stackLayout;horizontal=1;startSize=26;horizontalStack=0;resizeParent=1;resizeParentMax=0;resizeLast=0;collapsible=1;marginBottom=0;whiteSpace=wrap;html=1;" vertex="1" parent="1">
          <mxGeometry x="430" y="151" width="160" height="118" as="geometry" />
        </mxCell>
        <mxCell id="IFlOmPg6EIL6a05Mhjfu-8" value="- id : int&lt;div&gt;- name : string&lt;/div&gt;&lt;div&gt;- description : string&lt;/div&gt;" style="text;strokeColor=none;fillColor=none;align=left;verticalAlign=top;spacingLeft=4;spacingRight=4;overflow=hidden;rotatable=0;points=[[0,0.5],[1,0.5]];portConstraint=eastwest;whiteSpace=wrap;html=1;" vertex="1" parent="IFlOmPg6EIL6a05Mhjfu-7">
          <mxGeometry y="26" width="160" height="84" as="geometry" />
        </mxCell>
        <mxCell id="IFlOmPg6EIL6a05Mhjfu-9" value="" style="line;strokeWidth=1;fillColor=none;align=left;verticalAlign=middle;spacingTop=-1;spacingLeft=3;spacingRight=3;rotatable=0;labelPosition=right;points=[];portConstraint=eastwest;strokeColor=inherit;" vertex="1" parent="IFlOmPg6EIL6a05Mhjfu-7">
          <mxGeometry y="110" width="160" height="8" as="geometry" />
        </mxCell>
        <mxCell id="IFlOmPg6EIL6a05Mhjfu-10" value="Schedule" style="swimlane;fontStyle=1;align=center;verticalAlign=top;childLayout=stackLayout;horizontal=1;startSize=26;horizontalStack=0;resizeParent=1;resizeParentMax=0;resizeLast=0;collapsible=1;marginBottom=0;whiteSpace=wrap;html=1;" vertex="1" parent="1">
          <mxGeometry x="-420" y="110" width="160" height="78" as="geometry" />
        </mxCell>
        <mxCell id="IFlOmPg6EIL6a05Mhjfu-11" value="- id : int&lt;div&gt;- time : varchar&lt;/div&gt;" style="text;strokeColor=none;fillColor=none;align=left;verticalAlign=top;spacingLeft=4;spacingRight=4;overflow=hidden;rotatable=0;points=[[0,0.5],[1,0.5]];portConstraint=eastwest;whiteSpace=wrap;html=1;" vertex="1" parent="IFlOmPg6EIL6a05Mhjfu-10">
          <mxGeometry y="26" width="160" height="44" as="geometry" />
        </mxCell>
        <mxCell id="IFlOmPg6EIL6a05Mhjfu-12" value="" style="line;strokeWidth=1;fillColor=none;align=left;verticalAlign=middle;spacingTop=-1;spacingLeft=3;spacingRight=3;rotatable=0;labelPosition=right;points=[];portConstraint=eastwest;strokeColor=inherit;" vertex="1" parent="IFlOmPg6EIL6a05Mhjfu-10">
          <mxGeometry y="70" width="160" height="8" as="geometry" />
        </mxCell>
        <mxCell id="IFlOmPg6EIL6a05Mhjfu-13" value="Image" style="swimlane;fontStyle=1;align=center;verticalAlign=top;childLayout=stackLayout;horizontal=1;startSize=26;horizontalStack=0;resizeParent=1;resizeParentMax=0;resizeLast=0;collapsible=1;marginBottom=0;whiteSpace=wrap;html=1;" vertex="1" parent="1">
          <mxGeometry x="-420" y="519" width="160" height="78" as="geometry" />
        </mxCell>
        <mxCell id="IFlOmPg6EIL6a05Mhjfu-14" value="- id : int&lt;div&gt;- image : image&lt;/div&gt;" style="text;strokeColor=none;fillColor=none;align=left;verticalAlign=top;spacingLeft=4;spacingRight=4;overflow=hidden;rotatable=0;points=[[0,0.5],[1,0.5]];portConstraint=eastwest;whiteSpace=wrap;html=1;" vertex="1" parent="IFlOmPg6EIL6a05Mhjfu-13">
          <mxGeometry y="26" width="160" height="44" as="geometry" />
        </mxCell>
        <mxCell id="IFlOmPg6EIL6a05Mhjfu-15" value="" style="line;strokeWidth=1;fillColor=none;align=left;verticalAlign=middle;spacingTop=-1;spacingLeft=3;spacingRight=3;rotatable=0;labelPosition=right;points=[];portConstraint=eastwest;strokeColor=inherit;" vertex="1" parent="IFlOmPg6EIL6a05Mhjfu-13">
          <mxGeometry y="70" width="160" height="8" as="geometry" />
        </mxCell>
        <mxCell id="IFlOmPg6EIL6a05Mhjfu-19" value="Report" style="swimlane;fontStyle=1;align=center;verticalAlign=top;childLayout=stackLayout;horizontal=1;startSize=26;horizontalStack=0;resizeParent=1;resizeParentMax=0;resizeLast=0;collapsible=1;marginBottom=0;whiteSpace=wrap;html=1;" vertex="1" parent="1">
          <mxGeometry x="380" y="597" width="160" height="98" as="geometry" />
        </mxCell>
        <mxCell id="IFlOmPg6EIL6a05Mhjfu-20" value="- id : int&lt;div&gt;- title : string&lt;/div&gt;&lt;div&gt;- description : string&lt;/div&gt;" style="text;strokeColor=none;fillColor=none;align=left;verticalAlign=top;spacingLeft=4;spacingRight=4;overflow=hidden;rotatable=0;points=[[0,0.5],[1,0.5]];portConstraint=eastwest;whiteSpace=wrap;html=1;" vertex="1" parent="IFlOmPg6EIL6a05Mhjfu-19">
          <mxGeometry y="26" width="160" height="64" as="geometry" />
        </mxCell>
        <mxCell id="IFlOmPg6EIL6a05Mhjfu-21" value="" style="line;strokeWidth=1;fillColor=none;align=left;verticalAlign=middle;spacingTop=-1;spacingLeft=3;spacingRight=3;rotatable=0;labelPosition=right;points=[];portConstraint=eastwest;strokeColor=inherit;" vertex="1" parent="IFlOmPg6EIL6a05Mhjfu-19">
          <mxGeometry y="90" width="160" height="8" as="geometry" />
        </mxCell>
        <mxCell id="IFlOmPg6EIL6a05Mhjfu-22" value="User" style="swimlane;fontStyle=1;align=center;verticalAlign=top;childLayout=stackLayout;horizontal=1;startSize=26;horizontalStack=0;resizeParent=1;resizeParentMax=0;resizeLast=0;collapsible=1;marginBottom=0;whiteSpace=wrap;html=1;" vertex="1" parent="1">
          <mxGeometry x="440" y="320" width="160" height="108" as="geometry" />
        </mxCell>
        <mxCell id="IFlOmPg6EIL6a05Mhjfu-23" value="+ username : varchar&lt;br&gt;-password : varchar&lt;br&gt;- name : string" style="text;strokeColor=none;fillColor=none;align=left;verticalAlign=top;spacingLeft=4;spacingRight=4;overflow=hidden;rotatable=0;points=[[0,0.5],[1,0.5]];portConstraint=eastwest;whiteSpace=wrap;html=1;" vertex="1" parent="IFlOmPg6EIL6a05Mhjfu-22">
          <mxGeometry y="26" width="160" height="74" as="geometry" />
        </mxCell>
        <mxCell id="IFlOmPg6EIL6a05Mhjfu-24" value="" style="line;strokeWidth=1;fillColor=none;align=left;verticalAlign=middle;spacingTop=-1;spacingLeft=3;spacingRight=3;rotatable=0;labelPosition=right;points=[];portConstraint=eastwest;strokeColor=inherit;" vertex="1" parent="IFlOmPg6EIL6a05Mhjfu-22">
          <mxGeometry y="100" width="160" height="8" as="geometry" />
        </mxCell>
        <mxCell id="IFlOmPg6EIL6a05Mhjfu-40" value="" style="edgeStyle=entityRelationEdgeStyle;fontSize=12;html=1;endArrow=ERoneToMany;rounded=0;exitX=1.013;exitY=0.302;exitDx=0;exitDy=0;exitPerimeter=0;" edge="1" parent="1" source="ly84IFFzyNYK9IbjNwR7-4" target="IFlOmPg6EIL6a05Mhjfu-23">
          <mxGeometry width="100" height="100" relative="1" as="geometry">
            <mxPoint x="70" y="-90" as="sourcePoint" />
            <mxPoint x="170" y="-190" as="targetPoint" />
          </mxGeometry>
        </mxCell>
        <mxCell id="IFlOmPg6EIL6a05Mhjfu-41" value="" style="edgeStyle=entityRelationEdgeStyle;fontSize=12;html=1;endArrow=ERmandOne;startArrow=ERmandOne;rounded=0;entryX=1.006;entryY=0.292;entryDx=0;entryDy=0;entryPerimeter=0;exitX=0;exitY=0.375;exitDx=0;exitDy=0;exitPerimeter=0;" edge="1" parent="1" source="ly84IFFzyNYK9IbjNwR7-24" target="IFlOmPg6EIL6a05Mhjfu-23">
          <mxGeometry width="100" height="100" relative="1" as="geometry">
            <mxPoint x="610" y="-90" as="sourcePoint" />
            <mxPoint x="710" y="-190" as="targetPoint" />
          </mxGeometry>
        </mxCell>
        <mxCell id="IFlOmPg6EIL6a05Mhjfu-42" value="" style="edgeStyle=entityRelationEdgeStyle;fontSize=12;html=1;endArrow=ERmandOne;startArrow=ERmandOne;rounded=0;entryX=0.347;entryY=0.384;entryDx=0;entryDy=0;entryPerimeter=0;" edge="1" parent="1" source="ly84IFFzyNYK9IbjNwR7-9" target="IFlOmPg6EIL6a05Mhjfu-24">
          <mxGeometry width="100" height="100" relative="1" as="geometry">
            <mxPoint x="210" as="sourcePoint" />
            <mxPoint x="310" y="-100" as="targetPoint" />
          </mxGeometry>
        </mxCell>
        <mxCell id="IFlOmPg6EIL6a05Mhjfu-43" value="" style="edgeStyle=entityRelationEdgeStyle;fontSize=12;html=1;endArrow=ERzeroToMany;endFill=1;rounded=0;entryX=1.063;entryY=0.259;entryDx=0;entryDy=0;entryPerimeter=0;exitX=0;exitY=0.045;exitDx=0;exitDy=0;exitPerimeter=0;" edge="1" parent="1" source="ly84IFFzyNYK9IbjNwR7-8" target="IFlOmPg6EIL6a05Mhjfu-2">
          <mxGeometry width="100" height="100" relative="1" as="geometry">
            <mxPoint x="740" y="630" as="sourcePoint" />
            <mxPoint x="840" y="530" as="targetPoint" />
          </mxGeometry>
        </mxCell>
        <mxCell id="IFlOmPg6EIL6a05Mhjfu-44" value="" style="edgeStyle=entityRelationEdgeStyle;fontSize=12;html=1;endArrow=ERzeroToMany;endFill=1;rounded=0;exitX=0.426;exitY=-0.016;exitDx=0;exitDy=0;exitPerimeter=0;" edge="1" parent="1" source="ly84IFFzyNYK9IbjNwR7-5" target="IFlOmPg6EIL6a05Mhjfu-5">
          <mxGeometry width="100" height="100" relative="1" as="geometry">
            <mxPoint x="920" y="380" as="sourcePoint" />
            <mxPoint x="770" y="330" as="targetPoint" />
          </mxGeometry>
        </mxCell>
        <mxCell id="IFlOmPg6EIL6a05Mhjfu-45" value="" style="edgeStyle=entityRelationEdgeStyle;fontSize=12;html=1;endArrow=ERzeroToMany;endFill=1;rounded=0;exitX=0.431;exitY=1.036;exitDx=0;exitDy=0;exitPerimeter=0;entryX=0.75;entryY=0;entryDx=0;entryDy=0;" edge="1" parent="1" source="ly84IFFzyNYK9IbjNwR7-24" target="IFlOmPg6EIL6a05Mhjfu-4">
          <mxGeometry width="100" height="100" relative="1" as="geometry">
            <mxPoint x="958" y="326" as="sourcePoint" />
            <mxPoint x="890" y="340" as="targetPoint" />
          </mxGeometry>
        </mxCell>
        <mxCell id="IFlOmPg6EIL6a05Mhjfu-46" value="" style="edgeStyle=entityRelationEdgeStyle;fontSize=12;html=1;endArrow=ERzeroToMany;endFill=1;rounded=0;exitX=1;exitY=0.5;exitDx=0;exitDy=0;entryX=0;entryY=0.5;entryDx=0;entryDy=0;" edge="1" parent="1" source="ly84IFFzyNYK9IbjNwR7-12" target="IFlOmPg6EIL6a05Mhjfu-20">
          <mxGeometry width="100" height="100" relative="1" as="geometry">
            <mxPoint x="200" y="850" as="sourcePoint" />
            <mxPoint x="300" y="680" as="targetPoint" />
          </mxGeometry>
        </mxCell>
        <mxCell id="IFlOmPg6EIL6a05Mhjfu-47" value="" style="edgeStyle=entityRelationEdgeStyle;fontSize=12;html=1;endArrow=ERone;endFill=1;rounded=0;entryX=1;entryY=0.5;entryDx=0;entryDy=0;exitX=0.75;exitY=1;exitDx=0;exitDy=0;" edge="1" parent="1" source="ly84IFFzyNYK9IbjNwR7-17" target="IFlOmPg6EIL6a05Mhjfu-14">
          <mxGeometry width="100" height="100" relative="1" as="geometry">
            <mxPoint x="260" y="310" as="sourcePoint" />
            <mxPoint x="320" y="399.49999999999955" as="targetPoint" />
            <Array as="points">
              <mxPoint x="-230" y="420" />
            </Array>
          </mxGeometry>
        </mxCell>
        <mxCell id="IFlOmPg6EIL6a05Mhjfu-48" value="" style="edgeStyle=entityRelationEdgeStyle;fontSize=12;html=1;endArrow=ERone;endFill=1;rounded=0;exitX=0.426;exitY=0.94;exitDx=0;exitDy=0;exitPerimeter=0;" edge="1" parent="1" source="ly84IFFzyNYK9IbjNwR7-15" target="IFlOmPg6EIL6a05Mhjfu-13">
          <mxGeometry width="100" height="100" relative="1" as="geometry">
            <mxPoint x="390" y="400" as="sourcePoint" />
            <mxPoint x="490" y="300" as="targetPoint" />
          </mxGeometry>
        </mxCell>
        <mxCell id="IFlOmPg6EIL6a05Mhjfu-49" value="" style="endArrow=diamondThin;endFill=1;endSize=24;html=1;rounded=0;exitX=1;exitY=0.5;exitDx=0;exitDy=0;entryX=0;entryY=0.5;entryDx=0;entryDy=0;" edge="1" parent="1" source="ly84IFFzyNYK9IbjNwR7-14" target="ly84IFFzyNYK9IbjNwR7-18">
          <mxGeometry width="160" relative="1" as="geometry">
            <mxPoint x="220" y="30" as="sourcePoint" />
            <mxPoint x="-270" y="337" as="targetPoint" />
          </mxGeometry>
        </mxCell>
        <mxCell id="IFlOmPg6EIL6a05Mhjfu-52" value="" style="edgeStyle=entityRelationEdgeStyle;fontSize=12;html=1;endArrow=ERoneToMany;rounded=0;" edge="1" parent="1" source="ly84IFFzyNYK9IbjNwR7-4" target="ly84IFFzyNYK9IbjNwR7-18">
          <mxGeometry width="100" height="100" relative="1" as="geometry">
            <mxPoint x="110" y="310" as="sourcePoint" />
            <mxPoint x="200" y="210" as="targetPoint" />
          </mxGeometry>
        </mxCell>
        <mxCell id="IFlOmPg6EIL6a05Mhjfu-53" value="" style="edgeStyle=entityRelationEdgeStyle;fontSize=12;html=1;endArrow=ERoneToMany;rounded=0;entryX=-0.023;entryY=0.29;entryDx=0;entryDy=0;entryPerimeter=0;exitX=1.007;exitY=0.04;exitDx=0;exitDy=0;exitPerimeter=0;" edge="1" parent="1" source="ly84IFFzyNYK9IbjNwR7-1" target="IFlOmPg6EIL6a05Mhjfu-8">
          <mxGeometry width="100" height="100" relative="1" as="geometry">
            <mxPoint x="220" y="-10" as="sourcePoint" />
            <mxPoint x="320" y="-110" as="targetPoint" />
          </mxGeometry>
        </mxCell>
        <mxCell id="IFlOmPg6EIL6a05Mhjfu-54" value="" style="edgeStyle=entityRelationEdgeStyle;fontSize=12;html=1;endArrow=ERoneToMany;rounded=0;" edge="1" parent="1" source="ly84IFFzyNYK9IbjNwR7-2" target="IFlOmPg6EIL6a05Mhjfu-11">
          <mxGeometry width="100" height="100" relative="1" as="geometry">
            <mxPoint x="110" y="160" as="sourcePoint" />
            <mxPoint x="210" y="60" as="targetPoint" />
          </mxGeometry>
        </mxCell>
        <mxCell id="IFlOmPg6EIL6a05Mhjfu-55" value="" style="edgeStyle=entityRelationEdgeStyle;fontSize=12;html=1;endArrow=ERoneToMany;rounded=0;exitX=0;exitY=0.5;exitDx=0;exitDy=0;entryX=0.994;entryY=0.355;entryDx=0;entryDy=0;entryPerimeter=0;" edge="1" parent="1" source="ly84IFFzyNYK9IbjNwR7-22" target="IFlOmPg6EIL6a05Mhjfu-8">
          <mxGeometry width="100" height="100" relative="1" as="geometry">
            <mxPoint x="680" y="90" as="sourcePoint" />
            <mxPoint x="780" y="-10" as="targetPoint" />
          </mxGeometry>
        </mxCell>
      </root>
    </mxGraphModel>
  </diagram>
</mxfile>
